<svg xmlns="http://www.w3.org/2000/svg" viewBox="0 0 279.55 279.55"><defs><clipPath id="a"><path d="M767.467 631.357a414.464 414.464 0 1 1-828.928 0 414.464 414.464 0 1 1 828.927 0z" color="#000" fill="#69c" fill-rule="evenodd" stroke="#fff" stroke-width="28.665.656" stroke-linecap="round" stroke-linejoin="round" enable-background="accumulate"/></clipPath></defs><g><g><path d="M274.41 139.66c0 74.393-60.307 134.696-134.695 134.696C65.322 274.356 5.02 214.05 5.02 139.66 5.02 65.27 65.326 4.967 139.715 4.967c74.393 0 134.695 60.306 134.695 134.695z" color="#000" fill="#69c" fill-rule="evenodd" stroke="#fff" stroke-width="9.315.656" stroke-linecap="round" stroke-linejoin="round" enable-background="accumulate"/><g clip-path="url(#a)" transform="matrix(.325 0 0 .325 24.984 -65.53)"><path d="M179.69 618.77c-25.187-90.437-68.468-134.55-42.73-217.81 9.686-30.914 40.866-35.77 65.63-44.228 20.056-38.047 81.75-91.49 218.6-61.363 0 0 115.24 25.187 141.59 70.11 50.073 136.25-16.07 208.77-44.04 313.04 0 0-287.79-60.073-339.06-59.745z" color="#000" fill="#402617" fill-rule="evenodd" enable-background="accumulate"/><path d="M319.58 772.31h75.484l30.182 112.64c-52.987 86.257-51.506 117.06-130.37 0z" color="#000" fill="#ecc8b3" enable-background="accumulate"/><path d="M319.57 772.31l-11.222 51.15c18.214 4.978 36.235 7.9 52.408 7.9 14.96 0 31.51-2.52 48.324-6.832l-14.01-52.218h-75.5z" color="#000" fill="#d3a087" enable-background="accumulate"/><path d="M550.15 559.62c0 51.143-12.583 154.44-44.043 185.2-31.46 30.764-93.052 64.54-145.35 64.54-52.3 0-113.89-33.776-145.35-64.54-31.46-30.764-44.043-134.06-44.043-185.2 0-51.143 9.785-107.65 44.06-141.17 34.273-33.515 126.01-78.02 178.31-78.02 104.76 0 105.61 50.395 154.01 77.858 41.692 23.658 2.41 90.188 2.41 141.33z" color="#000" fill="#ecc8b3" enable-background="accumulate"/><path d="M216.48 545.77s-34.61 21.236-6.85 48.996c21.81 21.81 50.354 33.55 72.585 33.907 21.55.346 47.764-23.8 56.8-31.755 9.004-7.93 1.574-37.594 1.574-37.594z" color="#000" fill="#d3a087" fill-opacity=".632" enable-background="accumulate"/><path d="M158.48 536.02l53.125 6.612 1.164-9.953-48.854-5.96z" fill="#2e3436"/><g color="#000"><path d="M340.32 549.72c0 18.27-39.377 38.168-63.137 38.168-23.76 0-60.645-23.544-60.645-38.168 0-21.68 41.836-36.07 60.645-36.07 18.81 0 63.138 20.022 63.138 36.07z" fill="#d29b82" enable-background="accumulate"/><path d="M333.232 549.223c0 14.544-34.872 30.385-55.915 30.385s-53.707-18.743-53.707-30.385c0-17.26 37.05-28.714 53.707-28.714 16.657 0 55.915 15.937 55.915 28.713z" fill="#fff" enable-background="accumulate"/><g><path d="M302.676 548.697c0 14.2-11.512 25.714-25.713 25.714-14.2 0-25.713-11.512-25.713-25.713 0-14.2 11.512-25.713 25.713-25.713 14.2 0 25.713 11.513 25.713 25.713z" fill="#816647" enable-background="accumulate"/><path d="M302.676 548.697c0 14.2-11.512 25.714-25.713 25.714-14.2 0-25.713-11.512-25.713-25.713z" fill="#9e6c32" enable-background="accumulate"/><path d="M290.31 548.765c0 7.32-5.935 13.256-13.255 13.256-7.32 0-13.256-5.934-13.256-13.255 0-7.32 5.934-13.255 13.255-13.255 7.32 0 13.255 5.935 13.255 13.255z" enable-background="accumulate"/><path d="M277.142 541.846c0 4.192 3.398 7.59 7.59 7.59 4.193 0 7.592-3.397 7.592-7.59s-3.4-7.59-7.59-7.59c-4.194 0-7.592 3.397-7.592 7.59z" fill="#fff" enable-background="accumulate"/></g><path d="M220.124 505.55c-.372-3.54 3.245-6.13 5.35-8.567 12.967-11.978 29.96-19.378 47.356-20.52 17.434-1.227 58.494 4.24 70.24 17.804 1.807 1.77-5.47 18.156-10.608 17.065-7.798-3.04-21.906-15.707-34.625-18.46-16.688-3.61-34.803-2.52-51.05 3.347-8.244 2.716-15.936 6.974-24.214 9.556-.77.127-1.832.437-2.45-.227z" fill="#402617" fill-rule="evenodd" enable-background="accumulate"/><path d="M503.318 505.55c.372-3.54-3.245-6.13-5.35-8.567-12.967-11.978-29.96-19.378-47.356-20.52-17.434-1.227-58.495 4.24-70.24 17.804-1.807 1.77 5.47 18.154 10.608 17.065 7.798-3.04 21.906-15.707 34.625-18.46 16.688-3.61 34.803-2.52 51.05 3.347 8.244 2.716 15.936 6.974 24.214 9.556.77.127 1.83.437 2.45-.227z" fill="#402617" fill-rule="evenodd" enable-background="accumulate"/></g><path d="M544.21 559c-2.315 31.86-3.108 67.5 13.008 69.68 16.115 2.182 32.458-31.176 36.743-62.832 4.286-31.655-3.006-52.776-19.12-54.957-16.116-2.18-28.485 18.595-30.63 48.11z" color="#000" fill="#ecc8b3" enable-background="accumulate"/><g fill="#d39f86" color="#000"><path d="M564.8 539.342c-.115.52.32 1.108.937 1.882.616.773 1.43 1.78 2.033 3.064.66 1.307 1.12 3.027 1.492 5.15.347 2.038.477 4.327.364 6.86-.114 2.53-.47 5.31-.95 8.25-.204 1.136-.436 2.285-.698 3.44-1.144 5.036-2.76 9.615-4.544 13.502-1.052 2.214-2.112 4.215-3.137 5.938-1.025 1.722-2.016 3.17-2.88 4.373-.862 1.206-1.596 2.174-2.062 2.962-.465.788-.658 1.403-.435 1.83.224.425.857.63 1.858.54 1-.093 2.366-.49 3.952-1.296 1.587-.807 3.39-2.03 5.2-3.706 1.81-1.675 3.624-3.804 5.222-6.282 2.818-4.263 5.228-9.658 6.585-15.646.31-1.375.56-2.743.752-4.095.53-3.423.666-6.882.362-10.116-.303-3.232-1.044-6.235-2.092-8.817-.56-1.402-1.274-2.703-2.083-3.83-.81-1.128-1.71-2.083-2.63-2.84-.962-.787-1.94-1.306-2.824-1.63-.884-.32-1.677-.45-2.325-.458-1.295-.017-1.986.408-2.1.926z" enable-background="accumulate"/><path d="M571.61 569.872c.727-.3 1.264-.955 1.614-1.894.35-.94.534-2.18.215-3.886-.33-1.597-1.244-3.46-3.102-5.122-1.325-1.077-2.82-1.9-4.294-2.41-.87-.302-1.698-.486-2.458-.584-3.097-.497-5.75-.16-7.61.543-1.862.7-2.97 1.765-3.058 2.992-.088 1.226.882 2.417 2.46 3.44 1.576 1.02 3.727 1.856 5.96 2.61.547.208 1.067.377 1.54.522.798.245 1.392.406 1.82.608.458.03 1.07.415 1.755.864.866.684 1.77 1.518 2.667 2 .897.482 1.76.616 2.49.316z" enable-background="accumulate"/></g><path d="M177.61 559.5c4.285 31.655 3.108 67.5-13.008 69.68-16.115 2.182-30.44-29.128-34.726-60.783-4.285-31.655.99-54.824 17.105-57.006 16.116-2.18 26.345 16.455 30.63 48.11z" color="#000" fill="#ecc8b3" enable-background="accumulate"/><g fill="#d39f86" color="#000"><path d="M155.357 539.843c.113.518-.32 1.107-.938 1.88-.617.775-1.43 1.78-2.034 3.066-.66 1.306-1.12 3.025-1.493 5.15-.346 2.037-.476 4.325-.363 6.857.114 2.532.47 5.31.95 8.252.204 1.135.435 2.284.698 3.44 1.143 5.035 2.76 9.613 4.544 13.5 1.052 2.215 2.112 4.216 3.137 5.938 1.024 1.723 2.015 3.17 2.878 4.374.863 1.204 1.597 2.172 2.062 2.96.466.79.66 1.404.435 1.83-.223.426-.856.63-1.857.54-1-.092-2.366-.49-3.953-1.296-1.586-.807-3.39-2.03-5.2-3.705-1.81-1.674-3.623-3.803-5.22-6.28-2.82-4.265-5.23-9.66-6.586-15.647-.313-1.375-.562-2.744-.753-4.095-.53-3.424-.667-6.882-.363-10.116.303-3.233 1.044-6.237 2.092-8.818.558-1.402 1.274-2.703 2.083-3.83.808-1.128 1.71-2.083 2.628-2.84.963-.788 1.94-1.306 2.825-1.63.884-.32 1.677-.45 2.325-.458 1.295-.017 1.986.407 2.1.926z" enable-background="accumulate"/><path d="M148.547 570.373c-.73-.3-1.265-.956-1.615-1.895-.35-.94-.534-2.178-.215-3.885.33-1.597 1.243-3.46 3.1-5.122 1.325-1.077 2.82-1.9 4.295-2.41.87-.302 1.698-.486 2.458-.583 3.097-.497 5.75-.16 7.61.542 1.862.7 2.97 1.766 3.058 2.992.088 1.226-.882 2.418-2.46 3.44-1.576 1.02-3.727 1.856-5.96 2.61-.547.208-1.068.378-1.54.522-.798.245-1.392.406-1.82.61-.458.03-1.07.413-1.755.863-.866.684-1.77 1.518-2.667 2-.897.482-1.76.616-2.49.316z" enable-background="accumulate"/></g><path d="M55.64 269.98c0 35.85-29.062 64.915-64.914 64.915-35.85 0-64.915-29.063-64.915-64.915 0-35.85 29.064-64.915 64.916-64.915 35.85 0 64.915 29.063 64.915 64.915z" transform="matrix(1.043 0 0 .749 284.03 359.798)" color="#000" fill="none" stroke="#2e3436" stroke-width="15.536" enable-background="accumulate"/><path d="M505.21 547.82s33.183 23.758 5.423 51.518c-21.81 21.81-46.787 27.818-69.017 28.175-21.55.346-43.127-18.093-52.162-26.048-9.005-7.93-8.353-40.09-8.353-40.09z" color="#000" fill="#d3a087" fill-opacity=".632" enable-background="accumulate"/><g color="#000"><path d="M381.742 549.64c0 18.27 39.378 38.168 63.138 38.168 23.76 0 60.645-23.544 60.645-38.168 0-21.68-41.836-36.07-60.645-36.07-18.81 0-63.138 20.022-63.138 36.07z" fill="#d29b82" enable-background="accumulate"/><path d="M388.83 548.78c0 14.715 34.873 30.742 55.916 30.742s53.706-18.963 53.706-30.74c0-17.463-37.05-29.05-53.706-29.05-16.657 0-55.916 16.124-55.916 29.05z" fill="#fff" enable-background="accumulate"/><g><path d="M470.89 548.616c0 14.2-11.51 25.714-25.712 25.714-14.2 0-25.713-11.513-25.713-25.714 0-14.2 11.512-25.713 25.713-25.713 14.2 0 25.713 11.513 25.713 25.713z" fill="#816647" enable-background="accumulate"/><path d="M470.89 548.616c0 14.2-11.51 25.714-25.712 25.714-14.2 0-25.713-11.513-25.713-25.714z" fill="#9e6c32" enable-background="accumulate"/><path d="M458.525 548.684c0 7.32-5.935 13.256-13.255 13.256-7.32 0-13.256-5.935-13.256-13.256 0-7.32 5.935-13.255 13.256-13.255 7.32 0 13.255 5.934 13.255 13.254z" enable-background="accumulate"/><path d="M445.356 541.765c0 4.192 3.4 7.59 7.592 7.59s7.59-3.397 7.59-7.59-3.398-7.59-7.59-7.59c-4.193 0-7.592 3.397-7.592 7.59z" fill="#fff" enable-background="accumulate"/></g></g><path d="M343.48 559.79l35.31.713-.356-9.987-32.457-.535z" fill="#2e3436"/><path d="M510.95 544.24l38.15-6.644-.437-9.987-42.228 6.152z" fill="#2e3436"/><path d="M354.07 421.09c-11.277-7.265-76.265-22.876-117.38-9.566-22.265 7.207-60.638 53.326-55.926 146.6-41.38-99.52-39.02-137.33-19.83-155.73 13.074-12.533 172.14-105.79 269.75-103.37 100.25 13.95 131.28 83.822 135.51 134.45 4.107 49.133-3.935 75.126-27.91 126.56 6.322-97.607-15.9-128.79-40.308-140-42.236-19.41-121.84-8.288-143.91 1.062z" color="#000" fill="#402617" fill-rule="evenodd" enable-background="accumulate"/><g color="#000" fill="#d3a087" enable-background="accumulate"><path d="M376.682 618.775l.012.022.033.06.127.24.48.905c.57 1.088 1.138 2.18 1.7 3.272 1.76 3.424 3.474 6.868 5.12 10.338 1.798 3.79 3.53 7.595 5.002 11.457.588 1.544 1.13 3.07 1.53 4.586.612.735 1.252 1.238 1.562 1.448-1.257-.404-2.312-.56-3.116-.76-1.95.332-3.855.76-5.716 1.21-4.668 1.126-9.273 2.44-13.828 3.79-5.927 1.86-11.86 3.72-17.798 5.585l1.803 4.588 1.803 4.59 16.84-7.676c4.282-1.87 8.554-3.685 12.88-5.313 1.74-.653 3.453-1.272 5.17-1.79 1.634-.764 3.044-1.493 4.29-1.898.31-2.043.232-3.73.125-5.13-.672-1.662-1.453-3.225-2.256-4.732-2.01-3.78-4.228-7.394-6.492-10.952-2.075-3.262-4.208-6.48-6.38-9.664-.694-1.017-1.39-2.03-2.094-3.04-.195-.28-.39-.56-.587-.84-.05-.074-.103-.148-.155-.222l-.04-.057-.014-.02zm-39.955 2.433l-6.44 10.816c-1.703 3.104-3.328 6.28-4.752 9.594-.972 3.094-1.785 6.498-1.808 10.374.934.475 2.03 1.258 3.377 2.086 1.406.6 2.805 1.28 4.228 1.985 3.63 1.807 7.208 3.75 10.795 5.733 4.776 2.72 9.547 5.44 14.313 8.155l2.16-4.432 2.157-4.433-15.44-6.075c-3.89-1.474-7.82-2.928-11.813-4.247-1.55-.513-3.14-1.017-4.777-1.454-.568.176-1.403.265-2.483.546.383-2.135 1.402-4.554 2.414-7.15.89-3.323 2.018-6.622 3.25-9.905 1.603-3.86 3.21-7.723 4.818-11.593z" enable-background="accumulate"/></g><path d="M55.64 269.98c0 35.85-29.062 64.915-64.914 64.915-35.85 0-64.915-29.063-64.915-64.915 0-35.85 29.064-64.915 64.916-64.915 35.85 0 64.915 29.063 64.915 64.915z" transform="matrix(1.043 0 0 .749 458.03 359.798)" color="#000" fill="none" stroke="#2e3436" stroke-width="15.536" enable-background="accumulate"/><g><path d="M126.22 306.397s81.19 32.802 103.694 98.043" fill="none" stroke="#402617" stroke-width="3"/><path d="M179.9 307.442c24.315 15.278 60.356 91.26 37.138 89.3-7.885-47.805-27.304-77.87-37.137-89.3z" color="#000" fill="#402617" fill-rule="evenodd" enable-background="accumulate"/><path d="M135.095 340.99c28.632-2.196 102.818 37.413 82.992 49.657-34.79-33.724-68.288-46.325-82.992-49.658z" color="#000" fill="#402617" fill-rule="evenodd" enable-background="accumulate"/></g><path d="M154.8 1044.7c0-105.69 15.556-202.19 149.25-202.19.45 6.896 22.173 30.676 55.187 30.676 41.93 0 55.16-22.36 55.067-30.676 128.63 0 149.37 96.5 149.37 202.19z" color="#000" fill="#eee" enable-background="accumulate"/><path d="M240.19 968.53l-9.542 75.75h25.69z" fill="#cccccf"/><path d="M481.67 967.03l-13.332 77.288h27.45z" fill="#cccccf"/><path d="M284.7 701.472s80.828 33.3 162.19-.98" color="#000" fill="none" stroke="#a75851" stroke-width="5" enable-background="accumulate"/></g></g></g></svg>